<?xml version="1.0" standalone="no"?>
<!DOCTYPE svg PUBLIC "-//W3C//DTD SVG 20010904//EN"
 "http://www.w3.org/TR/2001/REC-SVG-20010904/DTD/svg10.dtd">
<svg version="1.0" xmlns="http://www.w3.org/2000/svg"
 width="512.000000pt" height="512.000000pt" viewBox="0 0 512.000000 512.000000"
 preserveAspectRatio="xMidYMid meet">
<metadata>
Created by potrace 1.14, written by Peter Selinger 2001-2017
</metadata>
<g transform="translate(0.000000,512.000000) scale(0.100000,-0.100000)"
fill="#000000" stroke="none">
<path d="M685 5103 c-329 -70 -599 -346 -670 -684 -23 -106 -23 -3612 0 -3718
85 -403 441 -701 839 -701 l84 0 -33 157 c-60 287 -216 970 -321 1408 -206
855 -374 1524 -441 1755 -25 85 -53 183 -64 218 -13 47 -15 64 -6 67 7 2 120
34 252 70 817 225 2590 729 3505 996 113 33 212 62 222 65 12 4 18 -4 23 -28
26 -129 192 -855 215 -947 17 -63 29 -115 28 -116 -2 -1 -109 -28 -238 -60
-834 -205 -2195 -597 -2184 -629 2 -6 44 -191 93 -410 50 -219 93 -401 95
-404 6 -5 373 91 771 203 149 41 493 145 766 230 273 85 501 155 506 155 5 0
35 -123 66 -272 32 -150 86 -399 121 -553 35 -154 61 -283 57 -286 -3 -4 -141
-44 -306 -89 -826 -225 -1742 -502 -1739 -526 1 -5 46 -201 100 -436 68 -295
103 -428 112 -428 59 0 1779 523 2215 674 151 52 219 72 222 63 2 -6 18 -85
36 -174 18 -90 35 -163 40 -163 9 0 43 105 58 178 8 36 11 610 11 1842 0 1543
-2 1798 -15 1859 -72 342 -344 617 -677 685 -69 14 -272 16 -1875 15 -1557 -1
-1807 -3 -1868 -16z"/>
</g>
</svg>
